Coordinates
version=1
nRows=17
nColumns=40
inDegrees=yes

Units are S.I. units (second, meters, Newtons, ...)
If the header above contains a line with 'inDegrees', this indicates whether rotational values are in degrees (yes) or radians (no).

endheader
time	pelvis_tilt	pelvis_list	pelvis_rotation	pelvis_tx	pelvis_ty	pelvis_tz	hip_flexion_r	hip_adduction_r	hip_rotation_r	knee_angle_r	knee_angle_r_beta	ankle_angle_r	subtalar_angle_r	mtp_angle_r	hip_flexion_l	hip_adduction_l	hip_rotation_l	knee_angle_l	knee_angle_l_beta	ankle_angle_l	subtalar_angle_l	mtp_angle_l	lumbar_extension	lumbar_bending	lumbar_rotation	arm_flex_r	arm_add_r	arm_rot_r	elbow_flex_r	pro_sup_r	wrist_flex_r	wrist_dev_r	arm_flex_l	arm_add_l	arm_rot_l	elbow_flex_l	pro_sup_l	wrist_flex_l	wrist_dev_l
      1.38000000	      1.96070894	     -9.88427129	     89.72207597	      0.13214861	      0.92416650	     -0.29112485	     16.70697245	      7.70360219	     -1.70818107	      5.72943187	      0.09999745	      1.40742949	      0.00000000	      0.00000000	     25.19649751	     -4.39204823	      2.19597017	     62.87792226	      1.09742677	     -4.27342500	      0.00000000	      0.00000000	      6.02631253	      1.31668707	      2.96910444	      0.00000000	      0.00000000	      0.00000000	      0.00000000	      0.00000000	      0.00000000	      0.00000000	      0.00000000	      0.00000000	      0.00000000	      0.00000000	      0.00000000	      0.00000000	      0.00000000
      1.39000000	      1.86718401	     -9.93938213	     89.70212693	      0.13317343	      0.92497127	     -0.30317189	     15.46841542	      7.72590597	     -1.30901844	      4.90615765	      0.08562860	      1.77793413	      0.00000000	      0.00000000	     26.83797212	     -4.22376056	      2.28747239	     62.57182547	      1.09208437	     -2.62299023	      0.00000000	      0.00000000	      6.02149402	      1.11344464	      3.15162377	      0.00000000	      0.00000000	      0.00000000	      0.00000000	      0.00000000	      0.00000000	      0.00000000	      0.00000000	      0.00000000	      0.00000000	      0.00000000	      0.00000000	      0.00000000	      0.00000000
      1.40000000	      1.79791912	     -9.88933066	     89.66871941	      0.13416077	      0.92566901	     -0.31520524	     14.11575698	      7.77415669	     -0.79267846	      4.07984260	      0.07120669	      2.13322219	      0.00000000	      0.00000000	     28.28669235	     -4.08017108	      2.33533704	     61.95713990	      1.08135609	     -0.92185782	      0.00000000	      0.00000000	      5.87656235	      0.95051942	      3.38599195	      0.00000000	      0.00000000	      0.00000000	      0.00000000	      0.00000000	      0.00000000	      0.00000000	      0.00000000	      0.00000000	      0.00000000	      0.00000000	      0.00000000	      0.00000000	      0.00000000
      1.41000000	      1.68293935	     -9.89304313	     89.64182898	      0.13503438	      0.92609080	     -0.32718673	     12.88861664	      7.75105069	     -0.41086762	      3.36948641	      0.05880863	      2.55396358	      0.00000000	      0.00000000	     29.68526006	     -3.87036940	      2.34384930	     60.97476091	      1.06421034	      0.46446341	      0.00000000	      0.00000000	      5.80004276	      0.74326201	      3.49269132	      0.00000000	      0.00000000	      0.00000000	      0.00000000	      0.00000000	      0.00000000	      0.00000000	      0.00000000	      0.00000000	      0.00000000	      0.00000000	      0.00000000	      0.00000000	      0.00000000
      1.42000000	      1.60143979	     -9.77001540	     89.58599292	      0.13593204	      0.92648620	     -0.33929362	     11.50330367	      7.76448091	     -0.01195231	      2.62682995	      0.04584683	      2.96821809	      0.00000000	      0.00000000	     30.81849395	     -3.73018277	      2.26868146	     59.66409317	      1.04133487	      1.77290641	      0.00000000	      0.00000000	      5.57183350	      0.59289960	      3.68201998	      0.00000000	      0.00000000	      0.00000000	      0.00000000	      0.00000000	      0.00000000	      0.00000000	      0.00000000	      0.00000000	      0.00000000	      0.00000000	      0.00000000	      0.00000000	      0.00000000
      1.43000000	      1.51650030	     -9.71907489	     89.54172261	      0.13674045	      0.92652435	     -0.35135236	     10.26036994	      7.75750057	      0.31989570	      2.00060158	      0.03491708	      3.44387163	      0.00000000	      0.00000000	     31.93709888	     -3.54936129	      2.20848584	     58.06830319	      1.01348308	      2.88098690	      0.00000000	      0.00000000	      5.42931970	      0.43624251	      3.78716992	      0.00000000	      0.00000000	      0.00000000	      0.00000000	      0.00000000	      0.00000000	      0.00000000	      0.00000000	      0.00000000	      0.00000000	      0.00000000	      0.00000000	      0.00000000	      0.00000000
      1.44000000	      1.44803716	     -9.80944474	     89.48441148	      0.13749609	      0.92611499	     -0.36328749	      9.25396868	      7.75521632	      0.46646940	      1.50121415	      0.02620113	      3.94863833	      0.00000000	      0.00000000	     33.13065903	     -3.40787609	      2.09366453	     56.23414596	      0.98147100	      3.70519940	      0.00000000	      0.00000000	      5.45615845	      0.32824720	      3.86766364	      0.00000000	      0.00000000	      0.00000000	      0.00000000	      0.00000000	      0.00000000	      0.00000000	      0.00000000	      0.00000000	      0.00000000	      0.00000000	      0.00000000	      0.00000000	      0.00000000
      1.45000000	      1.37960481	     -9.48168679	     89.38507333	      0.13825491	      0.92612060	     -0.37559796	      7.69659399	      7.76043673	      1.03567769	      0.88692981	      0.01547985	      4.46679604	      0.00000000	      0.00000000	     33.66353804	     -3.27595910	      1.89713902	     54.02494685	      0.94291320	      4.68131704	      0.00000000	     -0.00000000	      4.99998506	      0.22423828	      3.97507430	     -0.00000000	      0.00000000	      0.00000000	      0.00000000	      0.00000000	     -0.00000000	     -0.00000000	      0.00000000	      0.00000000	      0.00000000	      0.00000000	      0.00000000	     -0.00000000	     -0.00000000
      1.46000000	      1.33288054	     -9.36883744	     89.28969120	      0.13896151	      0.92556845	     -0.38778039	      6.46662854	      7.77215252	      1.36673489	      0.42514396	      0.00742016	      5.01751909	      0.00000000	      0.00000000	     34.35821376	     -3.16981673	      1.66611493	     51.60862303	      0.90074039	      5.28536547	      0.00000000	      0.00000000	      4.79253576	      0.15271316	      4.03708703	      0.00000000	      0.00000000	      0.00000000	      0.00000000	      0.00000000	      0.00000000	      0.00000000	      0.00000000	      0.00000000	      0.00000000	      0.00000000	      0.00000000	      0.00000000	      0.00000000
      1.47000000	      1.30643013	     -9.33981538	     89.20120117	      0.13960830	      0.92467479	     -0.39997308	      5.37449722	      7.79915010	      1.66687747	      0.05804839	      0.00101314	      5.61202088	      0.00000000	      0.00000000	     35.03945027	     -3.07831154	      1.39567541	     48.95622053	      0.85444724	      5.70465924	      0.00000000	      0.00000000	      4.69729299	      0.11741913	      4.03920618	      0.00000000	      0.00000000	      0.00000000	      0.00000000	      0.00000000	      0.00000000	      0.00000000	      0.00000000	      0.00000000	      0.00000000	      0.00000000	      0.00000000	      0.00000000	      0.00000000
      1.48000000	      1.31816744	     -9.10757425	     89.08394143	      0.14029683	      0.92384209	     -0.41237130	      4.01578573	      7.86386950	      1.96138163	     -0.37943890	     -0.00662246	      6.17607442	      0.00000000	      0.00000000	     35.37275690	     -3.07473792	      0.97651908	     46.07189025	      0.80410618	      5.86875783	      0.00000000	      0.00000000	      4.36065838	      0.11860321	      4.14694998	      0.00000000	      0.00000000	      0.00000000	      0.00000000	      0.00000000	      0.00000000	      0.00000000	      0.00000000	      0.00000000	      0.00000000	      0.00000000	      0.00000000	      0.00000000	      0.00000000
      1.49000000	      1.33186184	     -9.00061015	     88.97450833	      0.14090413	      0.92263639	     -0.42475015	      2.84855211	      7.92472062	      2.23147725	     -0.70618719	     -0.01232529	      6.79242828	      0.00000000	      0.00000000	     35.74061912	     -3.05965421	      0.49312510	     42.96999883	      0.74996796	      5.82477921	      0.00000000	      0.00000000	      4.17776837	      0.13670910	      4.18182477	      0.00000000	      0.00000000	      0.00000000	      0.00000000	      0.00000000	      0.00000000	      0.00000000	      0.00000000	      0.00000000	      0.00000000	      0.00000000	      0.00000000	      0.00000000	      0.00000000
      1.50000000	      1.35658856	     -9.04029343	     88.87686152	      0.14144267	      0.92103042	     -0.43712100	      1.87859925	      7.99725232	      2.44798558	     -0.95956502	     -0.01674757	      7.42317004	      0.00000000	      0.00000000	     36.18351214	     -3.04285241	     -0.06438800	     39.69311658	      0.69277557	      5.60752662	      0.00000000	      0.00000000	      4.17644235	      0.16666021	      4.18340522	      0.00000000	      0.00000000	      0.00000000	      0.00000000	      0.00000000	      0.00000000	      0.00000000	      0.00000000	      0.00000000	      0.00000000	      0.00000000	      0.00000000	      0.00000000	      0.00000000
      1.51000000	      1.39365767	     -8.90294248	     88.77580645	      0.14193586	      0.91950556	     -0.44970889	      0.67675552	      8.07611863	      2.65475381	     -1.25826149	     -0.02196081	      8.06044758	      0.00000000	      0.00000000	     36.30962134	     -3.03959334	     -0.74802808	     36.20089958	      0.63182489	      5.04251181	      0.00000000	      0.00000000	      3.97717231	      0.21181614	      4.20702041	      0.00000000	      0.00000000	      0.00000000	      0.00000000	      0.00000000	      0.00000000	      0.00000000	      0.00000000	      0.00000000	      0.00000000	      0.00000000	      0.00000000	      0.00000000	      0.00000000
      1.52000000	      1.44429815	     -8.71536445	     88.67759573	      0.14233753	      0.91787811	     -0.46240625	     -0.59494641	      8.16293935	      2.81933505	     -1.57691702	     -0.02752239	      8.62096314	      0.00000000	      0.00000000	     36.28331290	     -3.02473593	     -1.51169860	     32.54582496	      0.56803180	      4.27136034	      0.00000000	      0.00000000	      3.71106169	      0.29078571	      4.21617758	      0.00000000	      0.00000000	      0.00000000	      0.00000000	      0.00000000	      0.00000000	      0.00000000	      0.00000000	      0.00000000	      0.00000000	      0.00000000	      0.00000000	      0.00000000	      0.00000000
      1.53000000	      1.47968979	     -8.80849790	     88.59331631	      0.14263047	      0.91573338	     -0.47501978	     -1.48967720	      8.23163651	      2.94314107	     -1.76050048	     -0.03072653	      9.23441157	      0.00000000	      0.00000000	     36.49124542	     -2.92800002	     -2.20899094	     28.77315049	      0.50218621	      3.42350928	      0.00000000	      0.00000000	      3.77937561	      0.35606071	      4.20267831	      0.00000000	      0.00000000	      0.00000000	      0.00000000	      0.00000000	      0.00000000	      0.00000000	      0.00000000	      0.00000000	      0.00000000	      0.00000000	      0.00000000	      0.00000000	      0.00000000
      1.54000000	      1.53320012	     -8.60789220	     88.51530977	      0.14284558	      0.91385747	     -0.48794721	     -2.76815424	      8.30669336	      3.00492512	     -2.03172482	     -0.03546029	      9.77531949	      0.00000000	      0.00000000	     36.27376859	     -2.82277863	     -2.97226564	     24.89557547	      0.43450976	      2.26874469	      0.00000000	      0.00000000	      3.52203967	      0.43971351	      4.18511210	      0.00000000	      0.00000000	      0.00000000	      0.00000000	      0.00000000	      0.00000000	      0.00000000	      0.00000000	      0.00000000	      0.00000000	      0.00000000	      0.00000000	      0.00000000	      0.00000000
